<?xml version="1.0" encoding="utf-8"?>
<!-- Generator: Adobe Illustrator 16.0.0, SVG Export Plug-In . SVG Version: 6.00 Build 0)  -->
<!DOCTYPE svg PUBLIC "-//W3C//DTD SVG 1.1//EN" "http://www.w3.org/Graphics/SVG/1.1/DTD/svg11.dtd">
<svg version="1.1" id="Layer_1" xmlns="http://www.w3.org/2000/svg" xmlns:xlink="http://www.w3.org/1999/xlink" x="0px" y="0px"
	 width="300px" height="300px" viewBox="0 0 300 300" enable-background="new 0 0 300 300" xml:space="preserve">
<g>
	<g>
		<rect x="58.312" y="45.704" fill-rule="evenodd" clip-rule="evenodd" fill="#58595B" width="176.186" height="192.737"/>
		<path fill-rule="evenodd" clip-rule="evenodd" fill="#F7FCFE" d="M99.99,45.491c-6.653,0-13.318,0-20.007,0
			c-6.158,8.588-12.316,17.176-18.486,25.764c-6.169,8.588-12.339,17.176-18.509,25.765c10.193,0,20.385,0,30.601,0
			c4.4-8.588,8.801-17.176,13.213-25.765C91.213,62.667,95.625,54.079,99.99,45.491z"/>
		<path fill-rule="evenodd" clip-rule="evenodd" fill="#F7FCFE" d="M140.053,45.491c-6.701,0-13.366,0-20.031,0
			c-2.619,8.588-5.261,17.176-7.904,25.764c-2.643,8.588-5.285,17.176-7.928,25.765c10.192,0,20.385,0,30.601,0
			c0.873-8.588,1.758-17.176,2.643-25.765C138.307,62.667,139.191,54.079,140.053,45.491z"/>
		<path fill-rule="evenodd" clip-rule="evenodd" fill="#F7FCFE" d="M180.091,45.491c-6.7,0-13.354,0-20.031,0
			c0.921,8.588,1.794,17.176,2.679,25.764c0.885,8.588,1.757,17.176,2.654,25.765c10.192,0,20.373,0,30.589,0
			c-2.643-8.588-5.297-17.176-7.928-25.765C185.411,62.667,182.769,54.079,180.091,45.491z"/>
		<path fill-rule="evenodd" clip-rule="evenodd" fill="#F7FCFE" d="M220.142,45.491c-6.689,0-13.366,0-20.02,0
			c4.436,8.588,8.836,17.176,13.236,25.764c4.412,8.588,8.824,17.176,13.235,25.765c10.193,0,20.374,0,30.578,0
			c-6.158-8.588-12.316-17.176-18.498-25.765C232.505,62.667,226.335,54.079,220.142,45.491z"/>
		<g>
			<path fill-rule="evenodd" clip-rule="evenodd" fill="#00A79D" d="M59.976,45.491c6.677,0,13.331,0,20.007,0
				c-6.158,8.588-12.316,17.176-18.486,25.764c-6.169,8.588-12.339,17.176-18.509,25.765c-10.216,0-20.408,0-30.601,0
				c7.939-8.588,15.855-17.176,23.794-25.765C44.121,62.667,52.048,54.079,59.976,45.491z"/>
			<path fill-rule="evenodd" clip-rule="evenodd" fill="#00A79D" d="M99.99,45.491c6.677,0,13.366,0,20.031,0
				c-2.619,8.588-5.261,17.176-7.904,25.764c-2.643,8.588-5.285,17.176-7.928,25.765c-10.216,0-20.408,0-30.601,0
				c4.4-8.588,8.801-17.176,13.213-25.765C91.213,62.667,95.625,54.079,99.99,45.491z"/>
			<path fill-rule="evenodd" clip-rule="evenodd" fill="#00A79D" d="M140.053,45.491c6.653,0,13.33,0,20.007,0
				c0.921,8.588,1.794,17.176,2.679,25.764c0.885,8.588,1.757,17.176,2.654,25.765c-10.217,0-20.409,0-30.602,0
				c0.873-8.588,1.758-17.176,2.643-25.765C138.307,62.667,139.191,54.079,140.053,45.491z"/>
			<path fill-rule="evenodd" clip-rule="evenodd" fill="#00A79D" d="M180.091,45.491c6.677,0,13.331,0,20.031,0
				c4.436,8.588,8.836,17.176,13.236,25.764c4.412,8.588,8.824,17.176,13.235,25.765c-10.228,0-20.408,0-30.612,0
				c-2.643-8.588-5.297-17.176-7.928-25.765C185.411,62.667,182.769,54.079,180.091,45.491z"/>
			<path fill-rule="evenodd" clip-rule="evenodd" fill="#00A79D" d="M220.142,45.491c6.665,0,13.365,0,20.043,0
				c7.975,8.588,15.901,17.176,23.829,25.764c7.939,8.588,15.867,17.176,23.807,25.765c-10.229,0-20.444,0-30.648,0
				c-6.158-8.588-12.316-17.176-18.498-25.765C232.505,62.667,226.335,54.079,220.142,45.491z"/>
		</g>
		<path fill-rule="evenodd" clip-rule="evenodd" fill="#00A79D" d="M12.387,97.02h30.601v7.951h-0.047
			c0,8.47-6.842,15.336-15.301,15.336c-8.446,0-15.3-6.866-15.3-15.336h0.047V97.02z"/>
		<path fill-rule="evenodd" clip-rule="evenodd" fill="#DFEBEC" d="M73.589,97.02H42.988v7.951h0.047
			c0,8.47,6.842,15.336,15.301,15.336c8.446,0,15.3-6.866,15.3-15.336h-0.047V97.02z"/>
		<path fill-rule="evenodd" clip-rule="evenodd" fill="#00A79D" d="M73.684,97.02h30.601v7.951h-0.047
			c0,8.47-6.842,15.336-15.289,15.336c-8.458,0-15.313-6.866-15.313-15.336h0.047V97.02z"/>
		<path fill-rule="evenodd" clip-rule="evenodd" fill="#DFEBEC" d="M134.885,97.02h-30.601v7.951h0.047
			c0,8.47,6.842,15.336,15.289,15.336c8.47,0,15.313-6.866,15.313-15.336h-0.047V97.02z"/>
		<path fill-rule="evenodd" clip-rule="evenodd" fill="#00A79D" d="M134.98,97.02h30.601v7.951h-0.047
			c0,8.47-6.843,15.336-15.289,15.336c-8.458,0-15.313-6.866-15.313-15.336h0.047V97.02z"/>
		<path fill-rule="evenodd" clip-rule="evenodd" fill="#DFEBEC" d="M196.182,97.02h-30.601v7.951h0.047
			c0,8.47,6.843,15.336,15.301,15.336s15.301-6.866,15.301-15.336h-0.048V97.02z"/>
		<path fill-rule="evenodd" clip-rule="evenodd" fill="#00A79D" d="M196.276,97.02h30.601v7.951h-0.035
			c0,8.47-6.854,15.336-15.301,15.336c-8.446,0-15.312-6.866-15.312-15.336h0.047V97.02z"/>
		<path fill-rule="evenodd" clip-rule="evenodd" fill="#DFEBEC" d="M257.479,97.02h-30.602v7.951h0.048
			c0,8.47,6.842,15.336,15.3,15.336c8.459,0,15.301-6.866,15.301-15.336h-0.047V97.02z"/>
		<path fill-rule="evenodd" clip-rule="evenodd" fill="#00A79D" d="M257.572,97.02h30.602v7.951h-0.023
			c0,8.47-6.866,15.336-15.313,15.336c-8.458,0-15.313-6.866-15.313-15.336h0.047V97.02z"/>
		<g>
			<path fill-rule="evenodd" clip-rule="evenodd" fill="#00A79D" d="M188.054,181.391h3.221c9.213,0,9.603-10.452,0-10.452h-3.221
				v0.826c2.419,0,4.377,1.958,4.377,4.389c0,2.406-1.958,4.364-4.377,4.364V181.391z M112.141,181.391h75.913v-0.873
				c-2.418,0-4.376-1.958-4.376-4.364c0-2.431,1.958-4.389,4.376-4.389v-0.826c-25.304-0.047-50.608-0.047-75.913,0v0.826
				c2.43,0,4.389,1.958,4.389,4.389c0,2.406-1.958,4.364-4.389,4.364V181.391z M108.933,181.391h3.208v-0.873
				c-2.407,0-4.388-1.958-4.388-4.364c0-2.431,1.981-4.389,4.388-4.389v-0.826h-3.208
				C99.318,170.938,99.707,181.391,108.933,181.391z"/>
			<path fill-rule="evenodd" clip-rule="evenodd" fill="#00A79D" d="M155.919,135.265c-2.418,0-4.388,1.982-4.388,4.389
				c0,2.43,1.97,4.388,4.388,4.388c2.419,0,4.377-1.958,4.377-4.388C160.296,137.247,158.338,135.265,155.919,135.265z"/>
			<path fill-rule="evenodd" clip-rule="evenodd" fill="#00A79D" d="M189.765,174.974l-29.894-33.433
				c-0.685-0.755-1.888-0.826-2.666-0.142l0,0c-0.778,0.685-0.838,1.888-0.142,2.666l29.894,33.433
				c0.684,0.755,1.888,0.825,2.654,0.142l0,0C190.378,176.955,190.448,175.752,189.765,174.974z"/>
			<path fill-rule="evenodd" clip-rule="evenodd" fill="#00A79D" d="M144.276,135.265c2.43,0,4.388,1.982,4.388,4.389
				c0,2.43-1.958,4.388-4.388,4.388c-2.407,0-4.365-1.958-4.365-4.388C139.911,137.247,141.869,135.265,144.276,135.265z"/>
			<path fill-rule="evenodd" clip-rule="evenodd" fill="#00A79D" d="M110.442,174.974l32.606-36.453
				c0.684-0.778,1.888-0.849,2.643-0.142l0,0c0.779,0.685,0.85,1.888,0.165,2.643l-32.606,36.476
				c-0.684,0.755-1.887,0.825-2.654,0.142l0,0C109.829,176.955,109.758,175.752,110.442,174.974z"/>
			<path fill-rule="evenodd" clip-rule="evenodd" fill="#00A79D" d="M175.42,184.505h15.3l-3.999,23.075
				c-0.873,4.979-3.303,8.706-10.924,8.706h-0.377v-6.96c1.085-0.52,1.935-1.604,2.1-2.855c0.354-2.643,0.731-5.261,1.085-7.903
				c0.354-2.619,0.731-5.262,1.085-7.904c0.248-1.77-1.132-3.209-3.043-3.209l0,0c-0.425,0-0.85,0.071-1.227,0.189V184.505z
				 M162.82,184.505h12.6v3.139c-1.393,0.472-2.478,1.651-2.619,3.02c-0.271,2.643-0.555,5.285-0.826,7.904
				c-0.283,2.643-0.566,5.261-0.838,7.903c-0.188,1.77,1.074,3.209,2.796,3.209l0,0c0.52,0,1.015-0.118,1.487-0.354v6.96h-12.6
				v-6.701c1.368-0.354,2.466-1.628,2.572-3.114c0.212-2.643,0.412-5.261,0.613-7.903c0.188-2.619,0.4-5.262,0.602-7.904
				c0.13-1.77-1.31-3.209-3.232-3.209l0,0c-0.2,0-0.366,0.024-0.555,0.048V184.505z M150.092,184.505h12.729v2.997
				c-1.675,0.235-3.02,1.58-3.091,3.161c-0.118,2.643-0.235,5.285-0.354,7.904c-0.118,2.643-0.248,5.261-0.354,7.903
				c-0.082,1.77,1.274,3.209,2.997,3.209l0,0c0.271,0,0.542-0.023,0.802-0.095v6.701h-12.729v-6.606
				c1.734,0,3.149-1.439,3.185-3.209c0.036-2.643,0.083-5.261,0.13-7.903c0.036-2.619,0.071-5.262,0.118-7.904
				c0.023-1.77-1.51-3.209-3.421-3.209l0,0h-0.012V184.505z M137.363,184.505h12.729v2.949c-1.911,0-3.468,1.439-3.433,3.209
				c0.047,2.643,0.071,5.285,0.118,7.904c0.047,2.643,0.071,5.261,0.118,7.903c0.024,1.77,1.475,3.209,3.186,3.209l0,0h0.012v6.606
				h-12.729v-6.701c0.26,0.071,0.531,0.095,0.802,0.095l0,0c1.722,0,3.067-1.439,2.997-3.209c-0.118-2.643-0.236-5.261-0.354-7.903
				c-0.118-2.619-0.236-5.262-0.354-7.904c-0.071-1.581-1.416-2.926-3.091-3.161V184.505z M124.764,184.505h12.599v2.997
				c-0.177-0.023-0.354-0.048-0.542-0.048l0,0c-1.923,0-3.374,1.439-3.244,3.209c0.2,2.643,0.389,5.285,0.602,7.904
				c0.212,2.643,0.401,5.261,0.613,7.903c0.094,1.486,1.203,2.761,2.572,3.114v6.701h-12.599v-6.96
				c0.46,0.235,0.967,0.354,1.486,0.354l0,0c1.723,0,2.973-1.439,2.796-3.209c-0.283-2.643-0.554-5.261-0.837-7.903
				c-0.283-2.619-0.555-5.262-0.826-7.904c-0.142-1.368-1.227-2.548-2.619-3.02V184.505z M124.41,216.286
				c-7.632,0-10.063-3.728-10.924-8.706l-4.011-23.075h15.289v3.139c-0.377-0.118-0.79-0.189-1.203-0.189l0,0
				c-1.935,0-3.303,1.439-3.067,3.209c0.377,2.643,0.731,5.285,1.085,7.904c0.377,2.643,0.731,5.261,1.085,7.903
				c0.165,1.251,1.015,2.336,2.1,2.855v6.96H124.41z"/>
		</g>
	</g>
</g>
</svg>
