<?xml version="1.0" encoding="utf-8"?>
<!-- Generator: Adobe Illustrator 21.0.2, SVG Export Plug-In . SVG Version: 6.00 Build 0)  -->
<svg version="1.1" id="Layer_1" xmlns="http://www.w3.org/2000/svg" xmlns:xlink="http://www.w3.org/1999/xlink" x="0px" y="0px"
	 viewBox="0 0 321 92" style="enable-background:new 0 0 321 92;" xml:space="preserve">
<style type="text/css">
	.st0{fill:none;stroke:#D1D3D4;stroke-miterlimit:10;}
	.st1{fill:#FFFFFF;}
	.st2{clip-path:url(#SVGID_3_);}
	.st3{fill:#D2D3D4;}
	.st4{fill:#232324;}
	.st5{font-family:'CenturyGothic';}
	.st6{font-size:13px;}
	.st7{fill:none;stroke:#232324;stroke-width:0.25;stroke-miterlimit:10;}
</style>
<path class="st0" d="M214.8,0"/>
<g>
	<g>
		<circle id="SVGID_2_" class="st1" cx="51.3" cy="47.6" r="39.3"/>
	</g>
	<g>
		<g>
			<defs>
				<circle id="SVGID_1_" cx="51.3" cy="47.6" r="39.3"/>
			</defs>
			<clipPath id="SVGID_3_">
				<use xlink:href="#SVGID_1_"  style="overflow:visible;"/>
			</clipPath>
			<g id="bistro_logo_.psd_2_" class="st2">
				
					<image style="overflow:visible;enable-background:new    ;" width="186" height="262" id="bistro_logo_2_" xlink:href="2C3C3A6.png"  transform="matrix(0.3493 0 0 0.3499 19.1558 9.3398)">
				</image>
			</g>
		</g>
	</g>
</g>
<g>
	<g>
		<g>
			<g>
				<path class="st1" d="M252,60.4c0,4.7-2.8,8.5-6.2,8.5H104.4c-3.4,0-6.2-3.8-6.2-8.5v-23c0-4.7,2.8-8.5,6.2-8.5h141.4
					c3.4,0,6.2,3.8,6.2,8.5V60.4z"/>
			</g>
		</g>
	</g>
	<g>
		<rect x="98.2" y="38.9" class="st1" width="153.8" height="31.2"/>
	</g>
</g>
<g>
	<rect x="98.2" y="65.6" class="st3" width="146.8" height="4.6"/>
</g>
<text transform="matrix(1 0 0 1 103.9766 45.291)" class="st4 st5 st6">The Bistro</text>
<text transform="matrix(1 0 0 1 103.9766 45.291)" class="st7 st5 st6">The Bistro</text>
<text transform="matrix(1 0 0 1 103.9766 58.8916)" class="st4 st5 st6">Restaurant Kampala</text>
<text transform="matrix(1 0 0 1 103.9766 58.8916)" class="st7 st5 st6">Restaurant Kampala</text>
</svg>
