<?xml version="1.0" encoding="utf-8"?>
<!-- Generator: Adobe Illustrator 16.0.0, SVG Export Plug-In . SVG Version: 6.00 Build 0)  -->
<!DOCTYPE svg PUBLIC "-//W3C//DTD SVG 1.1//EN" "http://www.w3.org/Graphics/SVG/1.1/DTD/svg11.dtd">
<svg version="1.1" id="Layer_1" xmlns="http://www.w3.org/2000/svg" xmlns:xlink="http://www.w3.org/1999/xlink" x="0px" y="0px"
	 width="300px" height="300px" viewBox="0 0 300 300" enable-background="new 0 0 300 300" xml:space="preserve">
<g>
	<g>
		<g>
			<rect x="44" y="112" fill="#00A79D" width="216" height="72"/>
		</g>
		<g>
			<rect x="68" y="196" fill="#333333" width="181" height="84"/>
		</g>
		<g>
			<rect x="128" y="112" fill="#FFFFFF" width="60" height="181"/>
		</g>
	</g>
	<g>
		<path fill="none" d="M128.262,91.106C112.855,79.325,95.79,68.333,84.197,68.333c-2.848,0-5.049,0.706-6.909,2.212
			c-1.023,0.825-2.024,1.389-0.988,4.308c2.801,7.921,17.959,19.078,41.627,19.078l0,0c3.295,0,6.638,0.082,10.004-0.224
			C127.991,92.825,128.085,91.942,128.262,91.106z"/>
		<path fill="none" d="M136.641,78.102c1.412-1.012,2.955-1.848,4.602-2.495c-3.178-22.433-8.733-46.453-20.69-47.712
			c-0.188-0.012-0.4-0.036-0.577-0.036c-2.672,0-3.92,3.037-4.484,5.579C113.079,44.124,118.858,63.084,136.641,78.102z"/>
		<path fill="none" d="M161.098,78.184c13.994-18.442,27.998-40.286,20.231-49.878c-1.012-1.235-1.883-1.412-2.685-1.412
			c-2.895,0-7.86,2.896-12.416,9.356c-6.05,8.568-10.603,22.573-8.956,39.709C158.626,76.571,159.91,77.313,161.098,78.184z"/>
		<path fill="none" d="M213.507,65.968c-10.205,0-29.259,6.025-43.854,26.987c0.013,0.07,0.013,0.141,0.023,0.211
			c24.045-3.06,52.962-8.497,54.352-21.644c0.152-1.483-0.295-2.201-0.754-2.719C222.027,67.427,218.825,65.968,213.507,65.968z"/>
		<path fill="#4A4642" d="M234.443,58.742c-4.531-5.038-11.981-7.815-20.937-7.815c-6.155,0-12.948,1.353-19.866,4.037
			c6.048-13.429,7.484-26.092-0.637-36.132c-3.647-4.496-8.744-6.967-14.359-6.967c-8.649,0-17.652,5.731-24.703,15.724
			c-2.283,3.225-4.213,6.721-5.849,10.381c-5.226-13.724-13.158-23.668-25.963-25.034c-10.569-1.118-18.713,5.721-21.302,17.207
			c-1.859,8.204-0.683,18.195,3.072,28.034c-6.862-3.095-13.523-5.025-19.702-5.025c-6.296,0-11.805,1.742-16.371,5.426
			c-6.485,5.249-8.615,13.04-5.696,21.291c6.803,19.267,33.825,29.093,55.798,29.093l0,0c4.743,0,9.557-0.306,14.382-0.965
			c3.849,4.908,9.803,8.085,16.512,8.085c6.26,0,11.875-2.777,15.723-7.155c33.567-3.849,71.712-9.804,74.43-35.826
			C239.539,67.627,237.974,62.66,234.443,58.742z M166.229,36.25c4.556-6.461,9.521-9.356,12.416-9.356
			c0.802,0,1.673,0.177,2.685,1.412c7.767,9.592-6.237,31.436-20.231,49.878c-1.188-0.871-2.472-1.613-3.825-2.225
			C155.626,58.823,160.179,44.818,166.229,36.25z M115.492,33.437c0.564-2.542,1.813-5.579,4.484-5.579
			c0.176,0,0.388,0.024,0.577,0.036c11.958,1.259,17.513,25.28,20.69,47.712c-1.647,0.647-3.19,1.482-4.602,2.495
			C118.858,63.084,113.079,44.124,115.492,33.437z M117.928,93.931L117.928,93.931c-23.668,0-38.826-11.157-41.627-19.078
			c-1.036-2.919-0.035-3.483,0.988-4.308c1.86-1.506,4.061-2.212,6.909-2.212c11.593,0,28.658,10.992,44.064,22.773
			c-0.177,0.836-0.271,1.718-0.33,2.601C124.565,94.013,121.223,93.931,117.928,93.931z M224.028,71.522
			c-1.39,13.146-30.307,18.584-54.352,21.644c-0.011-0.071-0.011-0.142-0.023-0.211c14.595-20.961,33.648-26.987,43.854-26.987
			c5.318,0,8.521,1.459,9.768,2.836C223.733,69.322,224.181,70.04,224.028,71.522z"/>
	</g>
</g>
</svg>
