<?xml version="1.0" encoding="utf-8"?>
<!-- Generator: Adobe Illustrator 16.0.0, SVG Export Plug-In . SVG Version: 6.00 Build 0)  -->
<!DOCTYPE svg PUBLIC "-//W3C//DTD SVG 1.1//EN" "http://www.w3.org/Graphics/SVG/1.1/DTD/svg11.dtd">
<svg version="1.1" id="Layer_1" xmlns="http://www.w3.org/2000/svg" xmlns:xlink="http://www.w3.org/1999/xlink" x="0px" y="0px"
	 width="300px" height="300px" viewBox="0 0 300 300" enable-background="new 0 0 300 300" xml:space="preserve">
<g>
	<g id="XMLID_1385_">
		<path fill="#333333" d="M223.039,281.091H54.099V92.164h168.94v33.414l8.498-7.036V83.665h-9.688V71.394
			c0-14.039-11.489-25.528-25.512-25.528h-52.313c-0.442-15.466-13.07-27.873-28.638-27.873S87.173,30.399,86.731,45.866H34.417
			c-14.021,0-25.511,11.49-25.511,25.528v183.557c0,14.038,11.489,25.527,25.511,25.527h11.201v9.144h185.919v-71.723l-8.498,8.498
			V281.091z M200.587,71.394v12.271h-34.264c-0.102-6.526-3.552-12.067-8.157-16.554h38.172
			C198.65,67.111,200.587,69.049,200.587,71.394z M115.387,34.989c6.441,0,11.676,5.235,11.676,11.693
			c0,6.458-5.234,11.728-11.676,11.728c-6.458,0-11.71-5.269-11.71-11.728C103.676,40.224,108.928,34.989,115.387,34.989z
			 M34.417,259.2c-2.311,0-4.249-1.938-4.249-4.249V71.394c0-2.345,1.938-4.283,4.249-4.283h38.208
			c-4.606,4.487-8.074,10.028-8.192,16.554H45.618V259.2H34.417z"/>
	</g>
	<polygon fill="#00A79D" points="259.104,114.835 280.197,135.027 179.784,239.927 156.704,243.835 158.217,220.211 	"/>
</g>
</svg>
