<?xml version="1.0" encoding="utf-8"?>
<!-- Generator: Adobe Illustrator 16.0.0, SVG Export Plug-In . SVG Version: 6.00 Build 0)  -->
<!DOCTYPE svg PUBLIC "-//W3C//DTD SVG 1.1//EN" "http://www.w3.org/Graphics/SVG/1.1/DTD/svg11.dtd">
<svg version="1.1" id="Layer_1" xmlns="http://www.w3.org/2000/svg" xmlns:xlink="http://www.w3.org/1999/xlink" x="0px" y="0px"
	 width="300px" height="300px" viewBox="0 0 300 300" enable-background="new 0 0 300 300" xml:space="preserve">
<g>
	<path fill-rule="evenodd" clip-rule="evenodd" fill="#00A79D" d="M121.133,89.76c0,7.075-0.042,13.396,0.021,19.717
		c0.23,16.473,12.559,29.576,28.006,29.859c15.3,0.251,28.195-12.716,28.77-29.21c0.24-6.384,0.053-12.768,0.053-19.885
		c2.26-0.167,4.27-0.471,6.279-0.471c30.779-0.01,61.538-0.031,92.297,0.021c9.765,0.011,12.601,2.847,12.632,12.758
		c0.021,50.539,0,101.098-0.084,151.648c-0.021,11.24-2.585,13.71-13.877,13.689c-80.471-0.073-160.942-0.199-241.392-0.272
		c-4.249,0-8.519,0.355-12.757,0.167c-7.985-0.303-11.052-3.411-11.083-11.46c-0.083-23.422-0.031-46.854-0.031-70.276
		c0-27.65-0.042-55.301,0.01-82.951c0-10.77,2.659-13.323,13.417-13.323C55.566,89.76,87.727,89.76,121.133,89.76z M111.536,229.152
		c0.513-1.402,0.795-1.831,0.795-2.292c0.105-29.544,0.125-59.068,0.272-88.602c0.031-4.312-2.072-4.94-5.767-4.856
		c-9.66,0.167-19.362-0.042-29.021-0.063c-13.428-0.021-26.876,0-40.806,0c0,32.391,0,63.904,0,95.813
		C62.379,229.152,86.911,229.152,111.536,229.152z M202.901,224.517c-17.729,0-35.468,0-53.207,0.011c-1.675,0-3.38-0.179-4.95,0.22
		c-0.848,0.209-2.01,1.444-2.01,2.177c0,0.795,1.141,1.957,1.999,2.229c1.308,0.43,2.805,0.262,4.228,0.262
		c35.73,0.021,71.428,0.063,107.159-0.083c1.988-0.021,3.987-1.779,5.955-2.7c-1.968-0.712-3.946-2.01-5.935-2.03
		C238.401,224.454,220.662,224.517,202.901,224.517z M202.901,184.789c-17.729,0-35.468,0-53.207,0.021
		c-1.675,0-3.38-0.178-4.95,0.209c-0.848,0.22-2.01,1.444-2.01,2.198c0,0.774,1.141,1.946,1.999,2.219
		c1.308,0.429,2.805,0.272,4.228,0.272c35.73,0.021,71.428,0.041,107.159-0.095c1.988-0.011,3.987-1.779,5.955-2.7
		c-1.968-0.712-3.946-2.02-5.935-2.03C238.401,184.726,220.662,184.789,202.901,184.789z M202.901,145.082
		c-17.729,0-35.468,0-53.207,0.01c-1.675,0-3.38-0.178-4.95,0.22c-0.848,0.209-2.01,1.444-2.01,2.177
		c0,0.795,1.141,1.958,1.999,2.229c1.308,0.429,2.805,0.262,4.228,0.262c35.73,0.021,71.428,0.063,107.159-0.084
		c1.988-0.021,3.987-1.779,5.955-2.7c-1.968-0.711-3.946-2.009-5.935-2.03C238.401,145.019,220.662,145.082,202.901,145.082z"/>
	<path fill-rule="evenodd" clip-rule="evenodd" fill="#414042" d="M171.651,74.752c0,11.816,0.262,23.652-0.073,35.437
		c-0.324,10.79-6.384,18.964-15.249,21.674c-8.99,2.742-18.754,0.178-23.84-7.86c-2.868-4.5-4.751-10.455-4.877-15.803
		c-0.513-22.668-0.053-45.379-0.283-68.079c-0.052-5.379,1.727-6.96,6.938-6.771c10.183,0.356,20.355,0.439,30.497-0.021
		c5.882-0.262,7.19,2.01,7.022,7.368c-0.335,11.366-0.104,22.71-0.104,34.055C171.662,74.752,171.651,74.752,171.651,74.752z
		 M161.636,110.671c-0.146-6.792-5.662-12.203-12.266-12.057c-6.457,0.167-12.077,5.997-12.004,12.496
		c0.073,6.614,5.641,11.91,12.402,11.826C156.591,122.832,161.771,117.474,161.636,110.671z"/>
	<path fill-rule="evenodd" clip-rule="evenodd" fill="#414042" d="M111.536,229.152c-24.625,0-49.157,0-74.526,0
		c0-31.909,0-63.422,0-95.813c13.93,0,27.378-0.021,40.806,0c9.66,0.021,19.361,0.23,29.021,0.063
		c3.694-0.084,5.798,0.544,5.767,4.856c-0.147,29.534-0.167,59.058-0.272,88.602C112.332,227.321,112.049,227.75,111.536,229.152z"
		/>
	<path fill-rule="evenodd" clip-rule="evenodd" fill="#FFFFFF" d="M161.636,110.671c0.136,6.803-5.045,12.161-11.868,12.266
		c-6.761,0.083-12.329-5.212-12.402-11.826c-0.073-6.5,5.547-12.329,12.004-12.496C155.974,98.468,161.489,103.878,161.636,110.671z
		"/>
</g>
</svg>
