<?xml version="1.0" encoding="utf-8"?>
<!-- Generator: Adobe Illustrator 16.0.0, SVG Export Plug-In . SVG Version: 6.00 Build 0)  -->
<!DOCTYPE svg PUBLIC "-//W3C//DTD SVG 1.1//EN" "http://www.w3.org/Graphics/SVG/1.1/DTD/svg11.dtd">
<svg version="1.1" id="Layer_1" xmlns="http://www.w3.org/2000/svg" xmlns:xlink="http://www.w3.org/1999/xlink" x="0px" y="0px"
	 width="300px" height="300px" viewBox="0 0 300 300" enable-background="new 0 0 300 300" xml:space="preserve">
<g>
	<path fill="#D1D3D4" d="M273.88,271.709c0,6.05-4.95,11-11,11H37.328c-6.05,0-11-4.95-11-11V28.596c0-6.05,4.95-11,11-11H262.88
		c6.05,0,11,4.95,11,11V271.709z"/>
</g>
<rect x="26.328" y="17.596" fill="#F1F2F2" width="247.552" height="18.181"/>
<g>
	<text transform="matrix(1 0 0 1 66.5181 228.7529)" fill="#6D6E71" font-family="'CenturyGothic'" font-size="27.9399">My Qr Code</text>
	<g>
		<g>
			<path fill="#8DC641" d="M211.916,182.961c0,5.5-4.5,10-10,10H87.587c-5.5,0-10-4.5-10-10V68.635c0-5.5,4.5-10,10-10h114.329
				c5.5,0,10,4.5,10,10V182.961z"/>
		</g>
		<g id="XMLID_1147_">
			<g id="XMLID_1148_">
				<g id="XMLID_1384_">
					<path fill="#FFFFFF" d="M94.232,181.405c-2.2,0-4-1.8-4-4V76.368c0-2.2,1.8-4,4-4h101.035c2.2,0,4,1.8,4,4v101.038
						c0,2.2-1.8,4-4,4H94.232z"/>
				</g>
				<path id="XMLID_1149_" fill="#010101" d="M94.972,176.666h4.74v-4.742h-4.74V176.666 M99.712,176.666h4.745v-4.742h-4.745
					V176.666 M104.457,176.666h4.737v-4.742h-4.737V176.666 M109.194,176.666h4.742v-4.742h-4.742V176.666 M113.937,176.666h4.74
					v-4.742h-4.74V176.666 M118.676,176.666h4.74v-4.742h-4.74V176.666 M123.416,176.666h4.74v-4.742h-4.74V176.666
					 M132.898,176.666h4.74v-4.742h-4.74V176.666 M137.638,176.666h4.742v-4.742h-4.742V176.666 M142.38,176.666h4.74v-4.742h-4.74
					V176.666 M147.12,176.666h4.745v-4.742h-4.745V176.666 M94.972,171.924h4.74v-4.74h-4.74V171.924 M123.416,171.924h4.74v-4.74
					h-4.74V171.924 M132.898,171.924h4.74v-4.74h-4.74V171.924 M166.084,171.924h4.742v-4.74h-4.742V171.924 M170.826,171.924h4.74
					v-4.74h-4.74V171.924 M175.566,171.924h4.737v-4.74h-4.737V171.924 M180.304,171.924h4.745v-4.74h-4.745V171.924
					 M189.788,171.924h4.74v-4.74h-4.74V171.924 M94.972,167.184h4.74v-4.74h-4.74V167.184 M104.457,167.184h4.737v-4.74h-4.737
					V167.184 M109.194,167.184h4.742v-4.74h-4.742V167.184 M113.937,167.184h4.74v-4.74h-4.74V167.184 M123.416,167.184h4.74v-4.74
					h-4.74V167.184 M132.898,167.184h4.74v-4.74h-4.74V167.184 M147.12,167.184h4.745v-4.74h-4.745V167.184 M166.084,167.184h4.742
					v-4.74h-4.742V167.184 M170.826,167.184h4.74v-4.74h-4.74V167.184 M175.566,167.184h4.737v-4.74h-4.737V167.184 M94.972,162.443
					h4.74v-4.742h-4.74V162.443 M104.457,162.443h4.737v-4.742h-4.737V162.443 M109.194,162.443h4.742v-4.742h-4.742V162.443
					 M113.937,162.443h4.74v-4.742h-4.74V162.443 M123.416,162.443h4.74v-4.742h-4.74V162.443 M132.898,162.443h4.74v-4.742h-4.74
					V162.443 M137.638,162.443h4.742v-4.742h-4.742V162.443 M142.38,162.443h4.74v-4.742h-4.74V162.443 M151.865,162.443h4.739
					v-4.742h-4.739V162.443 M166.084,162.443h4.742v-4.742h-4.742V162.443 M94.972,157.701h4.74v-4.739h-4.74V157.701
					 M104.457,157.701h4.737v-4.739h-4.737V157.701 M109.194,157.701h4.742v-4.739h-4.742V157.701 M113.937,157.701h4.74v-4.739
					h-4.74V157.701 M123.416,157.701h4.74v-4.739h-4.74V157.701 M132.898,157.701h4.74v-4.739h-4.74V157.701 M137.638,157.701h4.742
					v-4.739h-4.742V157.701 M142.38,157.701h4.74v-4.739h-4.74V157.701 M151.865,157.701h4.739v-4.739h-4.739V157.701
					 M156.604,157.701h4.74v-4.739h-4.74V157.701 M166.084,157.701h4.742v-4.739h-4.742V157.701 M170.826,157.701h4.74v-4.739h-4.74
					V157.701 M175.566,157.701h4.737v-4.739h-4.737V157.701 M180.304,157.701h4.745v-4.739h-4.745V157.701 M185.049,157.701h4.739
					v-4.739h-4.739V157.701 M94.972,152.962h4.74v-4.745h-4.74V152.962 M123.416,152.962h4.74v-4.745h-4.74V152.962 M147.12,152.962
					h4.745v-4.745h-4.745V152.962 M151.865,152.962h4.739v-4.745h-4.739V152.962 M166.084,152.962h4.742v-4.745h-4.742V152.962
					 M170.826,152.962h4.74v-4.745h-4.74V152.962 M185.049,152.962h4.739v-4.745h-4.739V152.962 M94.972,148.217h4.74v-4.737h-4.74
					V148.217 M99.712,148.217h4.745v-4.737h-4.745V148.217 M104.457,148.217h4.737v-4.737h-4.737V148.217 M109.194,148.217h4.742
					v-4.737h-4.742V148.217 M113.937,148.217h4.74v-4.737h-4.74V148.217 M118.676,148.217h4.74v-4.737h-4.74V148.217
					 M123.416,148.217h4.74v-4.737h-4.74V148.217 M132.898,148.217h4.74v-4.737h-4.74V148.217 M137.638,148.217h4.742v-4.737h-4.742
					V148.217 M151.865,148.217h4.739v-4.737h-4.739V148.217 M161.345,148.217h4.739v-4.737h-4.739V148.217 M166.084,148.217h4.742
					v-4.737h-4.742V148.217 M175.566,148.217h4.737v-4.737h-4.737V148.217 M132.898,143.479h4.74v-4.74h-4.74V143.479
					 M142.38,143.479h4.74v-4.74h-4.74V143.479 M147.12,143.479h4.745v-4.74h-4.745V143.479 M151.865,143.479h4.739v-4.74h-4.739
					V143.479 M166.084,143.479h4.742v-4.74h-4.742V143.479 M170.826,143.479h4.74v-4.74h-4.74V143.479 M180.304,143.479h4.745v-4.74
					h-4.745V143.479 M185.049,143.479h4.739v-4.74h-4.739V143.479 M94.972,138.74h4.74v-4.742h-4.74V138.74 M104.457,138.74h4.737
					v-4.742h-4.737V138.74 M123.416,138.74h4.74v-4.742h-4.74V138.74 M132.898,138.74h4.74v-4.742h-4.74V138.74 M137.638,138.74
					h4.742v-4.742h-4.742V138.74 M142.38,138.74h4.74v-4.742h-4.74V138.74 M147.12,138.74h4.745v-4.742h-4.745V138.74
					 M156.604,138.74h4.74v-4.742h-4.74V138.74 M166.084,138.74h4.742v-4.742h-4.742V138.74 M170.826,138.74h4.74v-4.742h-4.74
					V138.74 M175.566,138.74h4.737v-4.742h-4.737V138.74 M180.304,138.74h4.745v-4.742h-4.745V138.74 M185.049,138.74h4.739v-4.742
					h-4.739V138.74 M189.788,138.74h4.74v-4.742h-4.74V138.74 M94.972,133.998h4.74v-4.74h-4.74V133.998 M109.194,133.998h4.742
					v-4.74h-4.742V133.998 M113.937,133.998h4.74v-4.74h-4.74V133.998 M128.156,133.998h4.742v-4.74h-4.742V133.998
					 M137.638,133.998h4.742v-4.74h-4.742V133.998 M166.084,133.998h4.742v-4.74h-4.742V133.998 M170.826,133.998h4.74v-4.74h-4.74
					V133.998 M180.304,133.998h4.745v-4.74h-4.745V133.998 M185.049,133.998h4.739v-4.74h-4.739V133.998 M189.788,133.998h4.74
					v-4.74h-4.74V133.998 M94.972,129.258h4.74v-4.743h-4.74V129.258 M99.712,129.258h4.745v-4.743h-4.745V129.258 M113.937,129.258
					h4.74v-4.743h-4.74V129.258 M118.676,129.258h4.74v-4.743h-4.74V129.258 M123.416,129.258h4.74v-4.743h-4.74V129.258
					 M137.638,129.258h4.742v-4.743h-4.742V129.258 M142.38,129.258h4.74v-4.743h-4.74V129.258 M147.12,129.258h4.745v-4.743h-4.745
					V129.258 M185.049,129.258h4.739v-4.743h-4.739V129.258 M189.788,129.258h4.74v-4.743h-4.74V129.258 M99.712,124.515h4.745
					v-4.742h-4.745V124.515 M104.457,124.515h4.737v-4.742h-4.737V124.515 M113.937,124.515h4.74v-4.742h-4.74V124.515
					 M151.865,124.515h4.739v-4.742h-4.739V124.515 M166.084,124.515h4.742v-4.742h-4.742V124.515 M185.049,124.515h4.739v-4.742
					h-4.739V124.515 M94.972,119.773h4.74v-4.737h-4.74V119.773 M99.712,119.773h4.745v-4.737h-4.745V119.773 M104.457,119.773
					h4.737v-4.737h-4.737V119.773 M109.194,119.773h4.742v-4.737h-4.742V119.773 M113.937,119.773h4.74v-4.737h-4.74V119.773
					 M123.416,119.773h4.74v-4.737h-4.74V119.773 M128.156,119.773h4.742v-4.737h-4.742V119.773 M132.898,119.773h4.74v-4.737h-4.74
					V119.773 M137.638,119.773h4.742v-4.737h-4.742V119.773 M151.865,119.773h4.739v-4.737h-4.739V119.773 M156.604,119.773h4.74
					v-4.737h-4.74V119.773 M166.084,119.773h4.742v-4.737h-4.742V119.773 M175.566,119.773h4.737v-4.737h-4.737V119.773
					 M185.049,119.773h4.739v-4.737h-4.739V119.773 M142.38,115.036h4.74v-4.742h-4.74V115.036 M147.12,115.036h4.745v-4.742h-4.745
					V115.036 M151.865,115.036h4.739v-4.742h-4.739V115.036 M94.972,110.293h4.74v-4.74h-4.74V110.293 M99.712,110.293h4.745v-4.74
					h-4.745V110.293 M104.457,110.293h4.737v-4.74h-4.737V110.293 M109.194,110.293h4.742v-4.74h-4.742V110.293 M113.937,110.293
					h4.74v-4.74h-4.74V110.293 M118.676,110.293h4.74v-4.74h-4.74V110.293 M123.416,110.293h4.74v-4.74h-4.74V110.293
					 M132.898,110.293h4.74v-4.74h-4.74V110.293 M142.38,110.293h4.74v-4.74h-4.74V110.293 M151.865,110.293h4.739v-4.74h-4.739
					V110.293 M161.345,110.293h4.739v-4.74h-4.739V110.293 M166.084,110.293h4.742v-4.74h-4.742V110.293 M170.826,110.293h4.74
					v-4.74h-4.74V110.293 M175.566,110.293h4.737v-4.74h-4.737V110.293 M180.304,110.293h4.745v-4.74h-4.745V110.293
					 M185.049,110.293h4.739v-4.74h-4.739V110.293 M189.788,110.293h4.74v-4.74h-4.74V110.293 M94.972,105.554h4.74v-4.74h-4.74
					V105.554 M123.416,105.554h4.74v-4.74h-4.74V105.554 M132.898,105.554h4.74v-4.74h-4.74V105.554 M137.638,105.554h4.742v-4.74
					h-4.742V105.554 M142.38,105.554h4.74v-4.74h-4.74V105.554 M151.865,105.554h4.739v-4.74h-4.739V105.554 M161.345,105.554h4.739
					v-4.74h-4.739V105.554 M189.788,105.554h4.74v-4.74h-4.74V105.554 M94.972,100.814h4.74v-4.745h-4.74V100.814 M104.457,100.814
					h4.737v-4.745h-4.737V100.814 M109.194,100.814h4.742v-4.745h-4.742V100.814 M113.937,100.814h4.74v-4.745h-4.74V100.814
					 M123.416,100.814h4.74v-4.745h-4.74V100.814 M142.38,100.814h4.74v-4.745h-4.74V100.814 M147.12,100.814h4.745v-4.745h-4.745
					V100.814 M151.865,100.814h4.739v-4.745h-4.739V100.814 M161.345,100.814h4.739v-4.745h-4.739V100.814 M170.826,100.814h4.74
					v-4.745h-4.74V100.814 M175.566,100.814h4.737v-4.745h-4.737V100.814 M180.304,100.814h4.745v-4.745h-4.745V100.814
					 M189.788,100.814h4.74v-4.745h-4.74V100.814 M94.972,96.069h4.74v-4.738h-4.74V96.069 M104.457,96.069h4.737v-4.738h-4.737
					V96.069 M109.194,96.069h4.742v-4.738h-4.742V96.069 M113.937,96.069h4.74v-4.738h-4.74V96.069 M123.416,96.069h4.74v-4.738
					h-4.74V96.069 M132.898,96.069h4.74v-4.738h-4.74V96.069 M147.12,96.069h4.745v-4.738h-4.745V96.069 M161.345,96.069h4.739
					v-4.738h-4.739V96.069 M170.826,96.069h4.74v-4.738h-4.74V96.069 M175.566,96.069h4.737v-4.738h-4.737V96.069 M180.304,96.069
					h4.745v-4.738h-4.745V96.069 M189.788,96.069h4.74v-4.738h-4.74V96.069 M94.972,91.332h4.74v-4.742h-4.74V91.332
					 M104.457,91.332h4.737v-4.742h-4.737V91.332 M109.194,91.332h4.742v-4.742h-4.742V91.332 M113.937,91.332h4.74v-4.742h-4.74
					V91.332 M123.416,91.332h4.74v-4.742h-4.74V91.332 M137.638,91.332h4.742v-4.742h-4.742V91.332 M161.345,91.332h4.739v-4.742
					h-4.739V91.332 M170.826,91.332h4.74v-4.742h-4.74V91.332 M175.566,91.332h4.737v-4.742h-4.737V91.332 M180.304,91.332h4.745
					v-4.742h-4.745V91.332 M189.788,91.332h4.74v-4.742h-4.74V91.332 M94.972,86.589h4.74v-4.742h-4.74V86.589 M123.416,86.589h4.74
					v-4.742h-4.74V86.589 M132.898,86.589h4.74v-4.742h-4.74V86.589 M147.12,86.589h4.745v-4.742h-4.745V86.589 M161.345,86.589
					h4.739v-4.742h-4.739V86.589 M189.788,86.589h4.74v-4.742h-4.74V86.589 M94.972,81.847h4.74V77.11h-4.74V81.847 M99.712,81.847
					h4.745V77.11h-4.745V81.847 M104.457,81.847h4.737V77.11h-4.737V81.847 M109.194,81.847h4.742V77.11h-4.742V81.847
					 M113.937,81.847h4.74V77.11h-4.74V81.847 M118.676,81.847h4.74V77.11h-4.74V81.847 M123.416,81.847h4.74V77.11h-4.74V81.847
					 M137.638,81.847h4.742V77.11h-4.742V81.847 M151.865,81.847h4.739V77.11h-4.739V81.847 M161.345,81.847h4.739V77.11h-4.739
					V81.847 M166.084,81.847h4.742V77.11h-4.742V81.847 M170.826,81.847h4.74V77.11h-4.74V81.847 M175.566,81.847h4.737V77.11
					h-4.737V81.847 M180.304,81.847h4.745V77.11h-4.745V81.847 M185.049,81.847h4.739V77.11h-4.739V81.847 M189.788,81.847h4.74
					V77.11h-4.74V81.847L189.788,81.847z"/>
			</g>
		</g>
	</g>
</g>
</svg>
