<?xml version="1.0" encoding="utf-8"?>
<!-- Generator: Adobe Illustrator 16.0.0, SVG Export Plug-In . SVG Version: 6.00 Build 0)  -->
<!DOCTYPE svg PUBLIC "-//W3C//DTD SVG 1.1//EN" "http://www.w3.org/Graphics/SVG/1.1/DTD/svg11.dtd">
<svg version="1.1" id="Layer_1" xmlns="http://www.w3.org/2000/svg" xmlns:xlink="http://www.w3.org/1999/xlink" x="0px" y="0px"
	 width="300px" height="300px" viewBox="0 0 300 300" enable-background="new 0 0 300 300" xml:space="preserve">
<g>
	<g>
		<path fill="#00A79D" d="M273.927,277.361c0,1.65-1.35,3-3,3H19.565c-1.65,0-3-1.35-3-3V26c0-1.65,1.35-3,3-3h251.361
			c1.65,0,3,1.35,3,3V277.361z"/>
	</g>
	<g>
		<path fill="#FFFFFF" d="M257.039,260.474c0,1.65-1.35,3-3,3H36.454c-1.65,0-3-1.35-3-3V42.888c0-1.65,1.35-3,3-3h217.585
			c1.65,0,3,1.35,3,3V260.474z"/>
	</g>
	<rect x="67.11" y="61.174" fill="#333333" width="73.395" height="64.512"/>
	<rect x="181.943" y="61.174" fill="#333333" width="44.051" height="64.512"/>
	<rect x="181.943" y="213.634" fill="#333333" width="44.051" height="32.263"/>
	<rect x="118.308" y="181.386" fill="#333333" width="48.964" height="64.511"/>
	<rect x="71.388" y="181.386" fill="#333333" width="27.781" height="64.511"/>
	<rect x="181.943" y="138.88" fill="#333333" width="44.051" height="24.913"/>
	<rect x="63.244" y="138.88" fill="#333333" width="67.897" height="24.913"/>
	<rect x="149.473" y="138.88" fill="#333333" width="17.798" height="57.177"/>
	<rect x="181.943" y="159.944" fill="#333333" width="10.445" height="71.385"/>
	<rect x="129.784" y="61.174" fill="#333333" width="57.176" height="8.899"/>
</g>
</svg>
