<?xml version="1.0" encoding="utf-8"?>
<!-- Generator: Adobe Illustrator 16.0.0, SVG Export Plug-In . SVG Version: 6.00 Build 0)  -->
<!DOCTYPE svg PUBLIC "-//W3C//DTD SVG 1.1//EN" "http://www.w3.org/Graphics/SVG/1.1/DTD/svg11.dtd">
<svg version="1.1" id="Layer_1" xmlns="http://www.w3.org/2000/svg" xmlns:xlink="http://www.w3.org/1999/xlink" x="0px" y="0px"
	 width="300px" height="300px" viewBox="0 0 300 300" enable-background="new 0 0 300 300" xml:space="preserve">
<g>
	<path fill="none" d="M216.211,52.595c3.602-6.445,3.437-12.89-0.442-19.183c-2.451-3.968-5.901-5.914-10.552-5.914
		c-12.763,0-33.766,15.493-42.004,48.588C185.554,76.983,208.275,66.824,216.211,52.595z"/>
	<path fill="none" d="M101.912,27.498c-4.638,0-8.1,1.946-10.552,5.914c-3.879,6.293-4.044,12.738-0.455,19.183
		c7.949,14.229,30.695,24.389,52.999,23.492C135.677,42.991,114.675,27.498,101.912,27.498z"/>
	<rect x="28" y="108" fill="#00A79D" width="90" height="39"/>
	<rect x="183" y="108" fill="#00A79D" width="90" height="39"/>
	<rect x="53" y="160" fill="#1A1A1A" width="65" height="116"/>
	<rect x="183" y="160" fill="#1A1A1A" width="65" height="116"/>
	<path fill="#CDCCCC" d="M183,98.845V108h-27.218c-5.611,0-12.675,35.418,5.029,72.576l-14.608,9.874
		C128.31,152.894,132.556,108,138.546,108H118v-9.155v48.525v10.791v121.287V289h65v-9.552V158.161V147.37V98.845z"/>
	<path fill="#00A79D" d="M146.204,181.564l14.608-6.95c-17.704-37.139-10.64-65.243-5.029-78.461
		c0.708-1.655,1.39-3.096,2.009-4.284c2.704,0.265,5.422,0.442,8.176,0.442c27.447,0,53.908-13.092,64.372-31.832
		c6.47-11.601,6.191-24.237-0.809-35.56c-5.409-8.77-14.04-13.584-24.313-13.584c-22.152,0-40.993,19.574-51.646,43.786
		c-10.678-24.212-29.506-43.786-51.658-43.786c-10.274,0-18.905,4.814-24.301,13.584c-7,11.322-7.291,23.959-0.821,35.56
		c10.299,18.462,36.154,31.415,63.171,31.794c-0.48,1.213-0.935,2.527-1.415,3.879C132.556,113.933,128.31,144.008,146.204,181.564z
		 M205.217,27.498c4.65,0,8.101,1.946,10.552,5.914c3.879,6.293,4.044,12.738,0.442,19.183
		c-7.936,14.229-30.657,24.389-52.998,23.492C171.451,42.991,192.454,27.498,205.217,27.498z M90.905,52.595
		c-3.589-6.445-3.424-12.89,0.455-19.183c2.452-3.968,5.914-5.914,10.552-5.914c12.763,0,33.765,15.493,41.992,48.588
		C121.6,76.983,98.854,66.824,90.905,52.595z"/>
</g>
</svg>
