<?xml version="1.0" encoding="utf-8"?>
<!-- Generator: Adobe Illustrator 16.0.0, SVG Export Plug-In . SVG Version: 6.00 Build 0)  -->
<!DOCTYPE svg PUBLIC "-//W3C//DTD SVG 1.1//EN" "http://www.w3.org/Graphics/SVG/1.1/DTD/svg11.dtd">
<svg version="1.1" id="Layer_1" xmlns="http://www.w3.org/2000/svg" xmlns:xlink="http://www.w3.org/1999/xlink" x="0px" y="0px"
	 width="300px" height="300px" viewBox="0 0 300 300" enable-background="new 0 0 300 300" xml:space="preserve">
<g>
	<g>
		<polyline fill="#333333" points="288.198,273.326 256.714,115.415 196.51,100.019 149.142,112.469 101.799,100.005 
			42.262,115.658 11.11,271.994 88.298,248.388 145.927,269.125 196.356,255.445 		"/>
	</g>
	<g>
		<path fill="#00A79D" d="M238.166,72.273c0,31.485-33.048,65.583-42.026,74.255c-1.243,1.217-3.216,1.217-4.458,0
			c-8.98-8.672-42.027-42.77-42.027-74.255c0-24.44,19.815-44.243,44.256-44.243C218.337,28.031,238.166,47.833,238.166,72.273z"/>
		<path fill="#CDCCCC" d="M226.01,72.273c0,17.728-14.372,32.1-32.1,32.1c-17.729,0-32.1-14.372-32.1-32.1
			c0-17.715,14.371-32.086,32.1-32.086C211.638,40.187,226.01,54.559,226.01,72.273z"/>
	</g>
</g>
</svg>
