<?xml version="1.0" encoding="utf-8"?>
<!-- Generator: Adobe Illustrator 16.0.0, SVG Export Plug-In . SVG Version: 6.00 Build 0)  -->
<!DOCTYPE svg PUBLIC "-//W3C//DTD SVG 1.1//EN" "http://www.w3.org/Graphics/SVG/1.1/DTD/svg11.dtd">
<svg version="1.1" id="Layer_1" xmlns="http://www.w3.org/2000/svg" xmlns:xlink="http://www.w3.org/1999/xlink" x="0px" y="0px"
	 width="20.57px" height="20.566px" viewBox="0 0 20.57 20.566" enable-background="new 0 0 20.57 20.566" xml:space="preserve">
<g>
	<path fill="#00A79D" d="M13.114,20.564c-1.701,0-3.402,0.002-5.104,0c-1.394,0-2.298-0.904-2.302-2.298
		c-0.004-2.294-0.008-4.587-0.01-6.882c-0.001-1.112,0.571-1.974,1.566-2.231C7.7,9.04,8.176,9.058,8.633,9.058
		c1.74-0.002,3.48,0.018,5.222,0.018c1.475,0,2.95-0.005,4.425-0.024c1.251-0.016,1.975,0.73,2.177,1.523
		c0.115,0.451,0.104,0.938,0.107,1.41c0.01,2.123,0.01,4.246,0.003,6.369c-0.006,1.288-0.938,2.208-2.229,2.211
		C16.596,20.568,14.855,20.564,13.114,20.564z M12.336,16.048c0,0.276-0.003,0.554,0.001,0.83c0.009,0.535,0.318,0.862,0.812,0.857
		c0.487-0.004,0.787-0.33,0.791-0.877c0.005-0.5,0.017-1.002-0.005-1.502c-0.013-0.273,0.069-0.451,0.286-0.635
		c0.709-0.599,0.756-1.647,0.134-2.32c-0.634-0.685-1.664-0.729-2.331-0.101c-0.68,0.641-0.742,1.697-0.062,2.317
		c0.33,0.301,0.407,0.601,0.376,0.993C12.326,15.757,12.336,15.904,12.336,16.048z"/>
	<path fill="#00A79D" d="M10.299,8.421c-0.754,0-1.513,0-2.313,0c0-0.729,0.007-1.438-0.002-2.146c-0.009-0.512,0-1.029-0.068-1.535
		C7.732,3.371,6.429,2.299,5.093,2.384C3.624,2.477,2.501,3.587,2.441,5.012C2.425,5.381,2.443,5.75,2.431,6.119
		C2.41,6.708,2.081,7.048,1.501,7.084c-0.21,0.014-0.423,0.015-0.632-0.008C0.401,7.028,0.063,6.739,0.028,6.278
		c-0.134-1.8,0.177-3.477,1.556-4.777C3.087,0.083,4.863-0.36,6.827,0.3c1.96,0.659,3.194,2.059,3.441,4.117
		C10.427,5.724,10.299,7.066,10.299,8.421z"/>
</g>
</svg>
