<?xml version="1.0" encoding="utf-8"?>
<!-- Generator: Adobe Illustrator 16.0.0, SVG Export Plug-In . SVG Version: 6.00 Build 0)  -->
<!DOCTYPE svg PUBLIC "-//W3C//DTD SVG 1.1//EN" "http://www.w3.org/Graphics/SVG/1.1/DTD/svg11.dtd">
<svg version="1.1" id="Layer_1" xmlns="http://www.w3.org/2000/svg" xmlns:xlink="http://www.w3.org/1999/xlink" x="0px" y="0px"
	 width="300px" height="300px" viewBox="0 0 300 300" enable-background="new 0 0 300 300" xml:space="preserve">
<g>
	<path fill="#F1F2F2" d="M270.144,267.987c0,6.05-4.95,11-11,11H40.541c-6.05,0-11-4.95-11-11V32.317c0-6.05,4.95-11,11-11h218.603
		c6.05,0,11,4.95,11,11V267.987z"/>
</g>
<rect x="29.541" y="21.317" fill="#D1D3D4" width="240.603" height="17.67"/>
<g>
	<text transform="matrix(1 0 0 1 86.5024 220.7148)"><tspan x="0" y="0" fill="#6D6E71" font-family="'CenturyGothic'" font-size="26.3144">Qr Code </tspan><tspan x="6.971" y="31.577" fill="#6D6E71" font-family="'CenturyGothic'" font-size="26.3144">Scanner</tspan></text>
	<g>
		<path fill-rule="evenodd" clip-rule="evenodd" fill="#616262" d="M131.504,139.746c-1.327-1.874-2.509-3.877-4.018-5.592
			c-2.929-3.34-3.649-7.095-3.58-11.473c0.212-13.818,0.051-27.65,0.007-41.468c-0.032-10.091,7.852-17.215,17.026-17.116
			c12.883,0.143,25.771,0.037,38.655,0.042c9.003,0,16.309,7.275,16.309,16.25c0,28.063-0.088,56.128,0.055,84.192
			c0.039,8.114-6.22,16.446-15.996,16.643c-13.228,0.268-26.469,0.067-39.709,0.058c-0.102,0-0.206-0.066-0.501-0.164
			c1.009-2.033,2.216-3.939,3.038-6.035c1.188-3.037,2.391-6.096,2.624-9.368c0.215-2.975,2.705-4.376,4.048-6.557
			c1.66-2.693,3.96-3.331,7.065-3.267c9.993,0.21,20.001,0.051,29.999,0.108c1.344,0.008,1.641-0.362,1.637-1.664
			c-0.039-22.588-0.042-45.179,0.004-67.77c0-1.382-0.354-1.751-1.744-1.75c-17.592,0.051-35.181,0.051-52.771-0.002
			c-1.442-0.005-1.724,0.44-1.719,1.782c0.039,17.061,0.025,34.119,0.025,51.185c0,0.611,0,1.223,0,1.837
			C131.804,139.66,131.652,139.704,131.504,139.746z M159.996,162.265c-2.292,0-4.581,0.037-6.871-0.016
			c-1.319-0.025-1.986,0.507-1.986,1.844c0,2.934-0.005,5.869,0.002,8.803c0.005,1.219,0.606,1.83,1.854,1.828
			c4.639-0.012,9.275-0.017,13.917,0c1.228,0.007,1.842-0.494,1.83-1.779c-0.025-2.994-0.022-5.989-0.005-8.983
			c0.01-1.172-0.5-1.717-1.696-1.703C164.693,162.285,162.346,162.265,159.996,162.265z M184.574,165.533
			c-0.032-1.611-1.361-2.922-2.942-2.901c-1.556,0.025-2.954,1.412-2.95,2.927c0.007,1.512,1.457,2.949,2.969,2.947
			C183.144,168.496,184.604,167.02,184.574,165.533z M160.065,75.712c2.116,0,4.23,0.007,6.35-0.007
			c0.542-0.005,1.221,0.203,1.246-0.764c0.027-0.965-0.54-1.008-1.251-1.004c-4.293,0.007-8.583,0.007-12.874,0
			c-0.625,0-1.154-0.009-1.151,0.879c0.007,0.891,0.526,0.9,1.156,0.896C155.715,75.706,157.887,75.708,160.065,75.712z
			 M142.901,74.715c-0.021-1.207-0.729-1.823-1.867-1.835c-1.117-0.011-1.867,0.521-1.909,1.789
			c-0.046,1.362,0.831,1.992,1.93,1.978C142.07,76.638,142.933,75.992,142.901,74.715z"/>
		<path fill-rule="evenodd" clip-rule="evenodd" fill="#8DC641" d="M119.639,105.612c0,8.053,0.004,15.639-0.005,23.226
			c-0.002,0.835,0.056,1.595,0.575,2.329c4.104,5.858,8.17,11.734,12.283,17.656c5.689-4.831,11.351-9.587,16.95-14.413
			c3.444-2.966,8.191-2.333,9.726,1.498c0.879,2.202,0.591,4.436-0.963,6.29c-5.246,6.25-10.524,12.475-15.844,18.663
			c-0.699,0.81-0.965,1.687-1.195,2.661c-1.581,6.695-3.709,13.162-7.771,18.854c-4.588,6.435-10.889,8.646-17.942,6.043
			c-4.263-1.576-6.477-5.053-7.792-9.168c-1.182-3.699-1.634-7.515-1.816-11.401c-0.646-13.695-0.139-27.394-0.337-41.089
			c-0.025-1.77,0.23-3.506,0.434-5.241c0.194-1.637,0.898-3.118,2.043-4.381C111.572,113.197,115.434,109.532,119.639,105.612z"/>
		<path fill-rule="evenodd" clip-rule="evenodd" fill="#616262" d="M152.49,105.779c-4.938-0.007-9.885-0.051-14.824-0.005
			c-1.143,0.009-1.664-0.166-1.639-1.498c0.085-4.468,0.062-8.944,0.011-13.412c-0.011-1.068,0.275-1.412,1.38-1.398
			c4.528,0.062,9.059,0.071,13.592-0.002c1.221-0.023,1.444,0.427,1.438,1.521c-0.037,4.941,0,9.883,0.012,14.824L152.49,105.779z
			 M149.984,97.622c0-1.59-0.021-3.176,0.014-4.764c0.016-0.743-0.067-1.191-1.02-1.175c-3.169,0.056-6.345,0.049-9.518,0.005
			c-0.863-0.012-1.097,0.307-1.087,1.126c0.035,3.174,0.042,6.35-0.004,9.525c-0.012,0.873,0.321,1.101,1.133,1.094
			c3.113-0.032,6.231-0.048,9.34,0.007c0.976,0.018,1.195-0.355,1.161-1.237C149.947,100.678,149.984,99.148,149.984,97.622z"/>
		<path fill-rule="evenodd" clip-rule="evenodd" fill="#616262" d="M176.271,105.751c-2.297,0-4.594-0.042-6.885,0.014
			c-0.917,0.025-1.222-0.254-1.215-1.188c0.04-4.644,0.044-9.294-0.002-13.942c-0.009-0.986,0.383-1.164,1.258-1.161
			c4.644,0.037,9.294,0.042,13.942,0c0.921-0.007,1.214,0.291,1.207,1.212c-0.039,4.644-0.043,9.294,0.003,13.942
			c0.012,0.997-0.399,1.152-1.251,1.136C180.977,105.719,178.622,105.747,176.271,105.751z M182.116,97.551
			c0-1.586-0.039-3.176,0.014-4.759c0.028-0.831-0.23-1.115-1.089-1.103c-3.174,0.044-6.348,0.037-9.521,0.004
			c-0.765-0.009-1.027,0.245-1.021,1.013c0.032,3.231,0.032,6.465,0,9.698c-0.007,0.764,0.266,1.029,1.018,1.025
			c3.176-0.028,6.348-0.035,9.523,0.004c0.854,0.012,1.117-0.293,1.089-1.119C182.079,100.729,182.116,99.141,182.116,97.551z"/>
		<path fill-rule="evenodd" clip-rule="evenodd" fill="#616262" d="M150.049,128.542c0-1.519-0.042-2.984,0.016-4.45
			c0.035-0.93-0.323-1.207-1.226-1.191c-3.113,0.039-6.225,0.032-9.338,0.002c-0.81-0.007-1.145,0.242-1.136,1.103
			c0.042,3.229,0.035,6.462,0.004,9.693c-0.007,0.75,0.21,1.081,0.993,1.025c0.746-0.051,1.493-0.011,2.788-0.011
			c-1.071,0.893-1.703,1.56-2.465,2.026c-1.93,1.175-3.626,0.247-3.626-1.92c-0.002-4.23,0.032-8.461-0.021-12.687
			c-0.016-1.115,0.24-1.517,1.45-1.498c4.523,0.079,9.045,0.064,13.569,0.007c1.048-0.011,1.481,0.217,1.396,1.353
			c-0.102,1.341-0.139,2.712,0.007,4.048C152.654,127.813,152.094,128.727,150.049,128.542z"/>
		<path fill-rule="evenodd" clip-rule="evenodd" fill="#616262" d="M152.461,105.809c0.408-0.014,0.821,0.014,1.219-0.051
			c1.449-0.24,2.042,0.333,1.791,1.787c-0.21,1.211,0.415,1.569,1.488,1.392c1.401-0.235,1.759,0.365,1.727,1.712
			c-0.044,1.791-0.247,3.603,0.143,5.389l0.035-0.032c-1.068,0.007-2.133,0.019-3.201,0.032l0.032,0.033
			c-0.012-0.058-0.023-0.116-0.037-0.176c-0.249-1.202,0.508-2.806-0.346-3.542c-0.889-0.767-2.475-0.217-3.756-0.235
			c-2.645-0.042-5.294-0.095-7.935,0.018c-1.334,0.06-1.392-0.572-1.353-1.569c0.032-0.9-0.147-1.731,1.292-1.657
			c2.287,0.12,4.588-0.058,6.875,0.065c1.535,0.083,2.326-0.268,2.02-1.964c-0.071-0.392,0.023-0.819,0.034-1.23L152.461,105.809z"
			/>
		<path fill-rule="evenodd" clip-rule="evenodd" fill="#616262" d="M171.199,134.059c0.261-2.008,0.289-4.014-0.014-6.017
			l-0.037,0.03c4.056-0.021,8.115,0.004,12.17-0.095c1.265-0.028,1.281,0.6,1.254,1.514c-0.03,0.838,0.146,1.664-1.188,1.567
			c-1.346-0.106-2.705,0.009-4.058-0.037c-0.824-0.023-1.182,0.249-1.136,1.105c0.051,1.001,0.016,2.001,0.012,3
			c-0.003,1.701-0.873,2.292-2.525,1.795c-0.667-0.196-0.618-0.692-0.545-1.11c0.286-1.703-0.512-2.181-2.047-1.961
			c-0.635,0.092-1.276,0.12-1.916,0.175L171.199,134.059z"/>
		<path fill-rule="evenodd" clip-rule="evenodd" fill="#616262" d="M158.87,122.426c-0.159-2.144-0.164-4.281-0.007-6.421
			l-0.035,0.032c3.647-0.014,7.296,0.033,10.94-0.064c1.35-0.032,1.514,0.552,1.512,1.673c-0.005,1.06-0.162,1.687-1.427,1.535
			c-0.814-0.095-1.652,0.046-2.47-0.03c-1.634-0.152-2.936-0.042-2.506,2.183c0.173,0.889-0.518,0.847-1.129,0.877
			c-1.639,0.087-3.286-0.222-4.909,0.177L158.87,122.426z"/>
		<path fill-rule="evenodd" clip-rule="evenodd" fill="#616262" d="M158.84,122.389c-0.325,0.545-0.129,1.145-0.191,1.717
			c-0.108,1.009,0.36,1.313,1.327,1.297c2.927-0.042,5.855-0.012,8.786-0.012c2.629,0,2.629,0,2.387,2.68l0.037-0.03
			c-3.804-0.018-7.609-0.125-11.408,0.007c-1.066,0.039-2.066,1.099-3.264,0.312c-0.185-0.123-0.471-0.1-0.648-0.229
			c-0.349-0.256-0.462-5.438-0.09-5.627c0.75-0.383,1.592-0.123,2.396-0.166c0.23-0.012,0.466,0.055,0.699,0.083L158.84,122.389z"/>
		<path fill-rule="evenodd" clip-rule="evenodd" fill="#616262" d="M178.065,121.3c1.819,0,3.643,0.042,5.463-0.016
			c1.454-0.043,0.968,1,1.016,1.713c0.051,0.727,0.242,1.514-1.041,1.488c-3.697-0.069-7.399-0.062-11.099-0.011
			c-1.464,0.025-0.977-0.988-1.021-1.692c-0.041-0.722-0.242-1.56,1.046-1.505C174.306,121.362,176.187,121.3,178.065,121.3z"/>
		<path fill-rule="evenodd" clip-rule="evenodd" fill="#616262" d="M140.761,128.586c0-3.162,0-3.162,3.086-3.162
			c0.173,0,0.351,0,0.526,0c3.36,0,3.36,0,3.305,3.317c-0.028,1.438-1.816,3.372-3.285,3.552
			C140.805,132.736,140.761,132.692,140.761,128.586z"/>
		<path fill-rule="evenodd" clip-rule="evenodd" fill="#616262" d="M159.932,103.466c-1.214-0.187-3.247,0.704-4.06-0.351
			c-0.748-0.972-0.318-2.913-0.247-4.422c0.037-0.838-0.736-2.17,1.226-2.195c1.51-0.014,2.026,0.45,1.768,1.875
			c-0.312,1.701,0.374,2.338,2.077,2.084c0.804-0.118,1.653,0.081,2.454-0.04c1.556-0.235,1.881,0.457,1.779,1.854
			c-0.067,0.891-0.264,1.265-1.205,1.209C162.556,103.416,161.384,103.466,159.932,103.466z"/>
		<path fill-rule="evenodd" clip-rule="evenodd" fill="#616262" d="M160.121,93.226c-0.882,0-1.771-0.09-2.631,0.021
			c-1.523,0.201-1.974-0.307-1.967-1.888c0.005-1.551,0.396-2.01,1.948-1.904c2.093,0.146,4.207,0.104,6.313,0.016
			c1.573-0.062,1.121,1.043,1.075,1.78c-0.051,0.75,0.667,2.045-1.053,1.982C162.579,93.188,161.349,93.226,160.121,93.226z"/>
		<path fill-rule="evenodd" clip-rule="evenodd" fill="#616262" d="M184.554,113.67c0,1.11-0.095,2.234,0.029,3.333
			c0.15,1.359-0.62,1.359-1.585,1.334c-0.905-0.019-1.71,0.134-1.637-1.29c0.125-2.278,0.106-4.567,0.007-6.843
			c-0.06-1.419,0.797-1.258,1.688-1.274c0.882-0.012,1.641-0.058,1.523,1.23C184.473,111.323,184.554,112.5,184.554,113.67z"/>
		<path fill-rule="evenodd" clip-rule="evenodd" fill="#616262" d="M172.909,108.94c1.056,0,2.114,0.083,3.158-0.018
			c1.297-0.127,1.534,0.452,1.541,1.613c0.015,1.177-0.258,1.657-1.537,1.595c-2.218-0.106-4.447-0.118-6.663,0
			c-1.498,0.081-1.193-0.856-1.223-1.692c-0.028-0.856-0.076-1.636,1.216-1.516C170.564,109.024,171.742,108.94,172.909,108.94z"/>
		<path fill-rule="evenodd" clip-rule="evenodd" fill="#616262" d="M139.044,116.042c-2.978-0.139-2.978-0.139-2.984-3.093
			c0-0.757,0.095-1.53-0.016-2.273c-0.224-1.544,0.476-1.881,1.865-1.768c0.877,0.072,1.263,0.286,1.226,1.221
			c-0.081,1.978-0.085,3.963-0.12,5.945L139.044,116.042z"/>
		<path fill-rule="evenodd" clip-rule="evenodd" fill="#616262" d="M155.662,116.038c-0.528,0.958,0.388,2.474-0.508,2.945
			c-0.938,0.484-2.294,0.159-3.469,0.18c-0.291,0.005-0.591-0.037-0.88,0.012c-1.237,0.187-1.611-0.316-1.579-1.551
			c0.033-1.136,0.203-1.745,1.533-1.646c1.639,0.123,3.286,0.067,4.935,0.093L155.662,116.038z"/>
		<path fill-rule="evenodd" clip-rule="evenodd" fill="#616262" d="M139.014,116.075c1.766-0.025,3.527,0.002,5.286-0.088
			c1.364-0.069,1.124,0.838,1.145,1.637c0.025,0.847,0.143,1.68-1.186,1.563c-1.053-0.095-2.126-0.113-3.171,0.002
			c-1.415,0.15-2.114-0.237-1.865-1.784c0.071-0.441,0.118-0.944-0.178-1.367L139.014,116.075z"/>
		<path fill-rule="evenodd" clip-rule="evenodd" fill="#616262" d="M164.894,109.079c0,0.466-0.044,0.944,0.01,1.408
			c0.127,1.122-0.132,1.673-1.478,1.669c-1.313-0.007-1.595-0.501-1.495-1.652c0.078-0.933,0.041-1.879,0.007-2.821
			c-0.039-1.115-0.118-2.008,1.564-1.98c1.669,0.03,1.381,1.001,1.392,1.966C164.898,108.14,164.894,108.611,164.894,109.079z"/>
		<path fill-rule="evenodd" clip-rule="evenodd" fill="#616262" d="M176,119.11c-1.359,0.355-1.611-0.251-1.634-1.454
			c-0.023-1.276,0.272-1.701,1.639-1.708c1.44-0.007,1.583,0.568,1.606,1.772C177.646,119.061,177.122,119.403,176,119.11z"/>
		<path fill-rule="evenodd" clip-rule="evenodd" fill="#616262" d="M182.947,136.893c-1.315,0.297-1.544-0.349-1.595-1.533
			c-0.058-1.486,0.787-1.339,1.777-1.415c1.214-0.09,1.436,0.409,1.465,1.512C184.63,136.764,184.141,137.158,182.947,136.893z"/>
		<path fill-rule="evenodd" clip-rule="evenodd" fill="#616262" d="M171.169,134.026c0.025,0.401,0.123,0.819,0.063,1.209
			c-0.088,0.563,0.406,1.426-0.45,1.623c-0.754,0.168-1.774,0.397-2.333-0.157c-0.559-0.551-0.254-1.539-0.157-2.324
			c0.069-0.549,0.628-0.388,1.004-0.39c0.633-0.009,1.27,0.043,1.904,0.071L171.169,134.026z"/>
		<path fill-rule="evenodd" clip-rule="evenodd" fill="#616262" d="M164.919,135.425c-0.203,0.508,0.291,1.556-0.401,1.454
			c-1.027-0.141-0.533-1.465-0.941-2.197c-0.307-0.54,0.168-0.699,0.623-0.692C165.344,134.02,164.702,134.929,164.919,135.425z"/>
		<path fill-rule="evenodd" clip-rule="evenodd" fill="#FFFFFF" d="M159.996,162.265c2.35,0,4.697,0.021,7.044-0.007
			c1.196-0.014,1.706,0.531,1.696,1.703c-0.018,2.994-0.021,5.989,0.005,8.983c0.012,1.285-0.603,1.786-1.83,1.779
			c-4.642-0.017-9.278-0.012-13.917,0c-1.247,0.002-1.849-0.609-1.854-1.828c-0.007-2.934-0.002-5.869-0.002-8.803
			c0-1.337,0.667-1.869,1.986-1.844C155.415,162.302,157.704,162.265,159.996,162.265z M160.065,165.032
			c-1.583,0-3.171,0.051-4.75-0.019c-1.013-0.044-1.514,0.166-1.436,1.327c0.1,1.463,0.093,2.94,0.005,4.401
			c-0.069,1.138,0.425,1.396,1.442,1.364c1.757-0.061,3.52,0.034,5.278-0.03c1.743-0.063,4.039,0.773,5.068-0.349
			c1.009-1.101,0.134-3.374,0.316-5.112c0.146-1.412-0.457-1.689-1.703-1.602C162.886,165.108,161.474,165.032,160.065,165.032z"/>
		<path fill-rule="evenodd" clip-rule="evenodd" fill="#FFFFFF" d="M184.574,165.533c0.03,1.486-1.431,2.963-2.924,2.973
			c-1.512,0.002-2.962-1.436-2.969-2.947c-0.004-1.515,1.395-2.901,2.95-2.927C183.213,162.611,184.542,163.922,184.574,165.533z"/>
		<path fill-rule="evenodd" clip-rule="evenodd" fill="#FFFFFF" d="M160.065,75.712c-2.179-0.005-4.351-0.007-6.524,0
			c-0.63,0.004-1.149-0.005-1.156-0.896c-0.003-0.889,0.526-0.879,1.151-0.879c4.291,0.007,8.581,0.007,12.874,0
			c0.711-0.004,1.278,0.039,1.251,1.004c-0.025,0.967-0.704,0.759-1.246,0.764C164.296,75.719,162.182,75.712,160.065,75.712z"/>
		<path fill-rule="evenodd" clip-rule="evenodd" fill="#FFFFFF" d="M142.901,74.715c0.032,1.276-0.831,1.922-1.846,1.932
			c-1.099,0.014-1.976-0.616-1.93-1.978c0.042-1.267,0.792-1.8,1.909-1.789C142.172,72.892,142.88,73.508,142.901,74.715z"/>
		<path fill-rule="evenodd" clip-rule="evenodd" fill="#FFFFFF" d="M149.984,97.622c0,1.526-0.037,3.056,0.019,4.582
			c0.034,0.882-0.185,1.255-1.161,1.237c-3.109-0.056-6.227-0.04-9.34-0.007c-0.813,0.007-1.145-0.221-1.133-1.094
			c0.046-3.176,0.039-6.352,0.004-9.525c-0.009-0.819,0.224-1.138,1.087-1.126c3.173,0.044,6.349,0.051,9.518-0.005
			c0.953-0.016,1.036,0.432,1.02,1.175C149.963,94.446,149.984,96.032,149.984,97.622z M144.341,101.105
			c3.446,0,3.446,0,3.446-3.383c-0.002-3.612-0.002-3.612-3.536-3.615c-3.508,0-3.508,0-3.508,3.437
			C140.743,101.105,140.743,101.105,144.341,101.105z"/>
		<path fill-rule="evenodd" clip-rule="evenodd" fill="#FFFFFF" d="M182.116,97.551c0,1.59-0.037,3.178,0.014,4.764
			c0.028,0.826-0.235,1.131-1.089,1.119c-3.176-0.039-6.348-0.032-9.523-0.004c-0.752,0.004-1.024-0.261-1.018-1.025
			c0.032-3.233,0.032-6.467,0-9.698c-0.007-0.769,0.256-1.022,1.021-1.013c3.173,0.032,6.347,0.04,9.521-0.004
			c0.858-0.012,1.117,0.272,1.089,1.103C182.077,94.375,182.116,95.965,182.116,97.551z M176.443,94.107c-3.57,0-3.57,0-3.57,3.381
			c0,3.617,0,3.617,3.542,3.617c3.492,0,3.492,0,3.495-3.499C179.91,94.107,179.91,94.107,176.443,94.107z"/>
		<path fill-rule="evenodd" clip-rule="evenodd" fill="#616262" d="M160.065,165.032c1.408,0,2.82,0.076,4.222-0.019
			c1.246-0.088,1.849,0.189,1.703,1.602c-0.183,1.738,0.692,4.012-0.316,5.112c-1.029,1.122-3.325,0.286-5.068,0.349
			c-1.759,0.064-3.521-0.03-5.278,0.03c-1.018,0.032-1.512-0.227-1.442-1.364c0.088-1.461,0.095-2.938-0.005-4.401
			c-0.078-1.161,0.423-1.371,1.436-1.327C156.895,165.083,158.482,165.032,160.065,165.032z"/>
		<path fill-rule="evenodd" clip-rule="evenodd" fill="#616262" d="M144.341,101.105c-3.598,0-3.598,0-3.598-3.561
			c0-3.437,0-3.437,3.508-3.437c3.534,0.002,3.534,0.002,3.536,3.615C147.787,101.105,147.787,101.105,144.341,101.105z"/>
		<path fill-rule="evenodd" clip-rule="evenodd" fill="#616262" d="M176.443,94.107c3.467,0,3.467,0,3.467,3.499
			c-0.003,3.499-0.003,3.499-3.495,3.499c-3.542,0-3.542,0-3.542-3.617C172.873,94.107,172.873,94.107,176.443,94.107z"/>
	</g>
</g>
</svg>
