<?xml version="1.0" encoding="utf-8"?>
<!-- Generator: Adobe Illustrator 16.0.0, SVG Export Plug-In . SVG Version: 6.00 Build 0)  -->
<!DOCTYPE svg PUBLIC "-//W3C//DTD SVG 1.1//EN" "http://www.w3.org/Graphics/SVG/1.1/DTD/svg11.dtd">
<svg version="1.1" id="Layer_1" xmlns="http://www.w3.org/2000/svg" xmlns:xlink="http://www.w3.org/1999/xlink" x="0px" y="0px"
	 width="300px" height="300px" viewBox="0 0 300 300" enable-background="new 0 0 300 300" xml:space="preserve">
<g>
	<path fill-rule="evenodd" clip-rule="evenodd" fill="#616262" d="M109.462,174.555c-2.907-4.115-5.503-8.54-8.834-12.313
		c-6.45-7.364-8.05-15.643-7.887-25.277c0.474-30.47,0.114-60.939,0.017-91.393c-0.082-22.224,17.292-37.916,37.507-37.704
		c28.396,0.327,56.792,0.098,85.188,0.098c19.839,0,35.923,16.035,35.923,35.793c0,61.854-0.195,123.675,0.131,185.529
		c0.082,17.88-13.716,36.233-35.254,36.675c-29.147,0.571-58.311,0.146-87.49,0.13c-0.229,0-0.474-0.163-1.11-0.375
		c2.221-4.475,4.882-8.671,6.678-13.292c2.629-6.694,5.274-13.438,5.797-20.64c0.474-6.564,5.96-9.65,8.916-14.451
		c3.657-5.943,8.736-7.348,15.578-7.201c22.027,0.474,44.055,0.114,66.099,0.245c2.956,0,3.609-0.784,3.609-3.674
		c-0.082-49.787-0.099-99.558,0-149.328c0-3.07-0.784-3.854-3.854-3.854c-38.732,0.114-77.514,0.114-116.262,0
		c-3.184-0.033-3.805,0.963-3.788,3.919c0.082,37.589,0.049,75.162,0.049,112.784c0,1.354,0,2.693,0,4.049
		C110.147,174.391,109.805,174.473,109.462,174.555z M172.246,224.161c-5.029,0-10.074,0.099-15.12,0
		c-2.923-0.081-4.393,1.095-4.393,4.05c0,6.467,0,12.933,0.017,19.383c0.016,2.71,1.339,4.049,4.082,4.033
		c10.222-0.017,20.443-0.017,30.682,0c2.694,0.016,4.05-1.078,4.018-3.903c-0.05-6.612-0.05-13.21,0-19.807
		c0.016-2.596-1.111-3.788-3.756-3.756C182.615,224.227,177.438,224.161,172.246,224.161z M226.426,231.379
		c-0.065-3.527-3.005-6.434-6.482-6.385c-3.43,0.049-6.516,3.103-6.499,6.45c0,3.331,3.2,6.499,6.531,6.499
		C223.258,237.91,226.475,234.645,226.426,231.379z M172.409,33.473c4.671,0,9.324,0,13.994-0.033
		c1.192-0.017,2.694,0.457,2.743-1.682c0.065-2.106-1.191-2.221-2.76-2.204c-9.454,0-18.908,0-28.363,0
		c-1.388,0-2.53-0.033-2.53,1.927c0.016,1.992,1.143,1.992,2.547,1.992C162.824,33.44,167.625,33.473,172.409,33.473z
		 M134.592,31.252c-0.049-2.646-1.617-4.001-4.115-4.05c-2.466,0-4.099,1.176-4.213,3.952c-0.098,3.021,1.829,4.409,4.262,4.376
		C132.763,35.497,134.673,34.061,134.592,31.252z"/>
	<path fill-rule="evenodd" clip-rule="evenodd" fill="#00A79D" d="M83.319,99.36c0,17.717,0.016,34.454,0,51.175
		c0,1.829,0.13,3.495,1.257,5.127c9.046,12.899,18.011,25.849,27.073,38.896c12.541-10.646,25.032-21.13,37.36-31.76
		c7.577-6.532,18.043-5.144,21.408,3.314c1.959,4.85,1.322,9.765-2.106,13.847c-11.562,13.766-23.204,27.498-34.896,41.133
		c-1.551,1.779-2.139,3.706-2.629,5.878c-3.511,14.729-8.181,28.968-17.145,41.509c-10.108,14.206-24.004,19.072-39.533,13.324
		c-9.389-3.479-14.288-11.137-17.178-20.183c-2.596-8.165-3.592-16.574-4-25.146c-1.404-30.176-0.311-60.352-0.735-90.528
		c-0.065-3.886,0.506-7.723,0.947-11.544c0.441-3.608,1.976-6.875,4.507-9.65C65.553,116.064,74.061,107.998,83.319,99.36z"/>
	<path fill-rule="evenodd" clip-rule="evenodd" fill="#FFFFFF" d="M172.246,224.161c5.192,0,10.369,0.065,15.529,0
		c2.645-0.032,3.771,1.16,3.756,3.756c-0.05,6.597-0.05,13.194,0,19.807c0.032,2.825-1.323,3.919-4.018,3.903
		c-10.238-0.017-20.46-0.017-30.682,0c-2.743,0.016-4.066-1.323-4.082-4.033c-0.017-6.45-0.017-12.916-0.017-19.383
		c0-2.955,1.47-4.131,4.393-4.05C162.172,224.26,167.217,224.161,172.246,224.161z M172.409,230.269
		c-3.478,0-6.972,0.114-10.45-0.032c-2.237-0.099-3.348,0.358-3.168,2.938c0.213,3.217,0.196,6.467,0,9.699
		c-0.146,2.482,0.947,3.054,3.185,2.988c3.87-0.114,7.756,0.082,11.626-0.049c3.854-0.131,8.899,1.698,11.169-0.768
		c2.221-2.433,0.294-7.445,0.702-11.267c0.311-3.119-0.996-3.739-3.756-3.543C178.631,230.432,175.528,230.269,172.409,230.269z"/>
	<path fill-rule="evenodd" clip-rule="evenodd" fill="#FFFFFF" d="M226.426,231.379c0.049,3.266-3.168,6.531-6.45,6.564
		c-3.331,0-6.531-3.168-6.531-6.499c-0.017-3.348,3.069-6.401,6.499-6.45C223.421,224.945,226.36,227.852,226.426,231.379z"/>
	<path fill-rule="evenodd" clip-rule="evenodd" fill="#FFFFFF" d="M172.409,33.473c-4.784,0-9.585-0.033-14.369,0
		c-1.404,0-2.531,0-2.547-1.992c0-1.959,1.143-1.927,2.53-1.927c9.455,0,18.909,0,28.363,0c1.568-0.017,2.825,0.098,2.76,2.204
		c-0.049,2.139-1.551,1.666-2.743,1.682C181.733,33.473,177.08,33.473,172.409,33.473z"/>
	<path fill-rule="evenodd" clip-rule="evenodd" fill="#FFFFFF" d="M134.592,31.252c0.082,2.809-1.829,4.245-4.066,4.278
		c-2.433,0.033-4.36-1.355-4.262-4.376c0.114-2.776,1.747-3.952,4.213-3.952C132.975,27.251,134.543,28.606,134.592,31.252z"/>
	<path fill-rule="evenodd" clip-rule="evenodd" fill="#616262" d="M172.409,230.269c3.119,0,6.222,0.163,9.308-0.032
		c2.76-0.196,4.066,0.424,3.756,3.543c-0.408,3.821,1.519,8.834-0.702,11.267c-2.27,2.466-7.315,0.637-11.169,0.768
		c-3.87,0.131-7.756-0.065-11.626,0.049c-2.237,0.065-3.331-0.506-3.185-2.988c0.196-3.232,0.213-6.482,0-9.699
		c-0.18-2.58,0.931-3.037,3.168-2.938C165.438,230.383,168.932,230.269,172.409,230.269z"/>
</g>
</svg>
