<?xml version="1.0" encoding="utf-8"?>
<!-- Generator: Adobe Illustrator 16.0.0, SVG Export Plug-In . SVG Version: 6.00 Build 0)  -->
<!DOCTYPE svg PUBLIC "-//W3C//DTD SVG 1.1//EN" "http://www.w3.org/Graphics/SVG/1.1/DTD/svg11.dtd">
<svg version="1.1" id="Layer_1" xmlns="http://www.w3.org/2000/svg" xmlns:xlink="http://www.w3.org/1999/xlink" x="0px" y="0px"
	 width="300px" height="300px" viewBox="0 0 300 300" enable-background="new 0 0 300 300" xml:space="preserve">
<g>
	<path fill="#00A79D" d="M123.251,284.384v-32.707l-1.959-0.477c-9.426-2.612-18.393-6.619-26.706-11.933l-1.748-1.13
		l-22.346,22.312l-30.766-30.801l23.105-23.158l-1.006-1.713c-4.819-8.561-8.367-17.704-10.467-27.288l-0.423-2.101h-31.56v-43.545
		h32.689l0.547-1.977c2.595-9.408,6.602-18.41,11.897-26.688l1.112-1.748L43.344,79.102l30.819-30.819l23.123,23.123l1.73-0.989
		c8.543-4.836,17.722-8.366,27.306-10.484l2.083-0.441V27.967h43.563v32.672l1.924,0.565c9.461,2.594,18.428,6.566,26.688,11.861
		l1.801,1.147l22.275-22.311l30.836,30.836l-23.122,23.087l0.971,1.783c4.871,8.525,8.401,17.739,10.502,27.306l0.441,2.048h31.56
		v43.598h-32.725l-0.512,1.906c-2.595,9.426-6.619,18.428-11.915,26.706l-1.146,1.765l22.328,22.329l-30.818,30.818l-23.123-23.123
		l-1.766,0.971c-8.543,4.872-17.722,8.367-27.271,10.468l-2.048,0.494v31.489H123.251z M147.609,88.369
		c-37.42,0-67.833,30.413-67.833,67.798c0,37.438,30.413,67.886,67.833,67.886c37.438,0,67.833-30.448,67.833-67.886
		C215.442,118.782,185.047,88.369,147.609,88.369z"/>
</g>
</svg>
