<?xml version="1.0" encoding="utf-8"?>
<!-- Generator: Adobe Illustrator 16.0.0, SVG Export Plug-In . SVG Version: 6.00 Build 0)  -->
<!DOCTYPE svg PUBLIC "-//W3C//DTD SVG 1.1//EN" "http://www.w3.org/Graphics/SVG/1.1/DTD/svg11.dtd">
<svg version="1.1" id="Layer_1" xmlns="http://www.w3.org/2000/svg" xmlns:xlink="http://www.w3.org/1999/xlink" x="0px" y="0px"
	 width="300px" height="300px" viewBox="0 0 300 300" enable-background="new 0 0 300 300" xml:space="preserve">
<g>
	<path fill-rule="evenodd" clip-rule="evenodd" fill="#00A79D" d="M163.571,40.906c0,1.181-0.029,2.39,0,3.571
		c0.043,2.275,1.137,3.714,3.311,4.549c4.262,1.67,8.495,3.427,12.67,5.27c2.016,0.864,3.729,0.72,5.298-0.835
		c1.699-1.67,3.369-3.398,5.097-5.039c2.361-2.188,4.78-2.361,7.516-0.662c5.788,3.628,10.453,8.408,14.081,14.167
		c1.9,3.052,1.612,5.24-0.965,7.89c-1.54,1.583-3.124,3.139-4.665,4.722c-1.569,1.555-1.728,3.254-0.85,5.27
		c1.844,4.204,3.643,8.437,5.284,12.698c0.85,2.188,2.261,3.254,4.535,3.283c2.39,0.058,4.78,0.058,7.17,0.058
		c2.88,0,4.751,1.469,5.442,4.146c1.757,7.083,1.685,14.225-0.072,21.308c-0.677,2.678-2.577,4.146-5.428,4.175
		c-2.304,0.058-4.607,0.058-6.91,0.029c-2.419-0.058-3.888,1.065-4.752,3.34c-1.612,4.204-3.311,8.351-5.183,12.439
		c-1.008,2.246-0.749,4.031,0.979,5.701c1.584,1.555,3.139,3.139,4.665,4.723c2.289,2.361,2.62,4.751,0.922,7.486
		c-3.7,5.961-8.553,10.77-14.556,14.397c-2.808,1.699-5.054,1.382-7.473-0.95c-1.569-1.526-3.167-3.081-4.679-4.665
		c-1.613-1.67-3.341-1.929-5.485-0.979c-4.176,1.871-8.423,3.6-12.685,5.27c-2.159,0.863-3.268,2.246-3.268,4.578
		c0,2.361,0.028,4.751-0.029,7.141c-0.086,2.938-1.598,4.81-4.463,5.5c-6.925,1.642-13.851,1.555-20.761-0.086
		c-2.937-0.691-4.377-2.649-4.406-5.788c-0.029-2.131-0.058-4.232-0.014-6.363c0.043-2.62-1.138-4.176-3.671-5.097
		c-4.118-1.526-8.178-3.283-12.18-5.097c-2.116-0.95-3.858-0.835-5.5,0.835c-1.699,1.699-3.369,3.397-5.125,5.039
		c-2.304,2.131-4.579,2.332-7.256,0.691c-5.975-3.687-10.741-8.581-14.426-14.542c-1.612-2.62-1.325-5.01,0.835-7.285
		c1.584-1.641,3.225-3.253,4.852-4.866c1.627-1.641,1.872-3.369,0.907-5.528c-1.828-4.089-3.584-8.235-5.168-12.411
		c-0.864-2.304-2.26-3.484-4.679-3.484c-2.304,0-4.607,0.029-6.911-0.029c-2.966-0.058-4.938-1.469-5.629-4.291
		c-1.742-7.083-1.656-14.196,0.129-21.279c0.634-2.534,2.477-4.031,5.227-4.06c2.375-0.029,4.78-0.029,7.17-0.029
		c2.404-0.029,3.815-1.181,4.679-3.484c1.526-4.117,3.196-8.206,5.068-12.18c1.108-2.361,0.835-4.204-0.979-5.961
		c-1.598-1.526-3.153-3.081-4.665-4.693c-2.217-2.304-2.505-4.751-0.777-7.487c3.657-5.903,8.466-10.625,14.369-14.253
		c2.879-1.757,5.212-1.44,7.688,0.979c1.584,1.555,3.139,3.081,4.693,4.665c1.555,1.583,3.254,1.785,5.27,0.921
		c4.291-1.843,8.61-3.599,12.958-5.356c2.016-0.806,3.081-2.217,3.11-4.376c0-2.333,0-4.607,0.029-6.911
		c0.058-3.34,1.425-5.125,4.65-5.875c6.436-1.583,12.929-1.555,19.394-0.173c4.463,0.951,5.601,2.477,5.615,7.055
		C163.571,39.438,163.571,40.157,163.571,40.906z M148.986,68.606c-23.137-0.115-42.199,18.573-42.314,41.493
		c-0.101,23.554,18.443,42.472,41.781,42.616c23.036,0.144,42.213-18.573,42.314-41.263
		C190.896,87.611,172.469,68.75,148.986,68.606z"/>
	<path fill-rule="evenodd" clip-rule="evenodd" fill="#333333" d="M75.833,199.536c-2.246-3.254-3.858-6.162-6.018-8.581
		c-3.254-3.715-6.853-7.17-10.395-10.654c-4.045-3.944-6.767-8.437-6.133-14.368c0.662-6.249,5.111-9.416,11.086-7.343
		c2.505,0.864,4.895,2.534,6.882,4.319c5.745,5.298,11.086,11.028,16.946,16.183c3.412,2.994,7.443,5.327,11.331,7.746
		c5.846,3.628,11.921,6.91,17.709,10.596c12.324,7.89,19.235,19.12,21.61,33.661c2.404,14.714,1.8,29.256-0.375,43.883
		c-1.31,8.812-0.562,7.199-8.796,7.285c-8.639,0.087-17.277-0.058-25.916,0.087c-2.678,0.028-3.988-1.008-4.175-3.542
		c-0.187-2.649-0.345-5.327-0.331-7.977c0.072-16.067-6.982-26.548-21.61-33.258c-10.813-4.924-20.818-11.315-30.033-18.86
		c-1.728-1.411-3.009-3.397-4.348-5.24c-2.937-4.003-5.73-8.092-8.696-12.065c-1.814-2.419-3.844-4.693-5.817-6.997
		c-5.73-6.737-9.761-14.109-10.294-23.208c-0.403-6.882-1.569-13.706-1.973-20.56c-0.172-3.052,0.447-6.22,1.152-9.243
		c0.677-2.851,2.606-4.866,5.745-5.183c3.038-0.317,5.111,1.267,6.551,3.714c3.542,5.961,4.435,12.612,4.981,19.293
		c0.562,7.112,2.937,13.303,7.429,18.889c5.399,6.738,11.806,12.296,18.832,17.22C65.28,198.24,69.801,199.737,75.833,199.536z"/>
	<path fill-rule="evenodd" clip-rule="evenodd" fill="#333333" d="M221.837,199.536c5.327,0.173,9.502-0.979,13.289-3.456
		c8.12-5.355,15.318-11.719,21.178-19.522c3.873-5.183,5.63-10.971,6.277-17.334c0.49-4.924,1.714-9.762,2.735-14.599
		c0.274-1.325,0.979-2.563,1.627-3.772c1.613-2.879,3.687-5.183,7.4-4.636c3.657,0.519,5.601,3.225,5.816,6.45
		c0.403,6.191,0.403,12.439,0.115,18.659c-0.216,4.463-1.324,8.897-1.813,13.361c-0.519,5.096-2.361,9.646-5.327,13.706
		c-3.269,4.435-6.911,8.58-10.208,13.015c-3.182,4.233-6.09,8.725-9.258,12.986c-1.353,1.814-2.879,3.6-4.664,5.011
		c-9.388,7.429-19.552,13.648-30.393,18.774c-13.188,6.22-20.373,16.384-20.416,31.242c-0.015,3.312-0.188,6.622-0.446,9.905
		c-0.158,1.986-1.296,2.994-3.498,2.994c-10.481-0.086-20.963-0.086-31.444,0c-2.605,0-3.066-1.67-3.325-3.513
		c-1.512-10.74-3.283-21.51-2.391-32.394c0.619-7.372,1.9-14.686,3.226-22c1.813-10.136,7.616-17.91,15.722-23.784
		c6.594-4.779,13.605-9.07,20.732-13.015c6.666-3.715,12.641-8.178,18.025-13.505c4.434-4.377,8.782-8.897,13.548-12.958
		c1.886-1.584,4.679-2.62,7.184-2.908c5.097-0.604,8.063,2.246,8.639,7.4c0.677,6.277-2.274,10.885-6.521,15.06
		c-4.161,4.146-8.135,8.466-12.022,12.871C224.198,195.159,223.276,197.232,221.837,199.536z"/>
</g>
</svg>
